<svg width="200" height="200" fill="none" xmlns="http://www.w3.org/2000/svg"><path fill="#2C6269" d="M100 122H0V22h100z"/><path fill-rule="evenodd" clip-rule="evenodd" d="M100 222c55.228 0 100-44.772 100-100S155.228 22 100 22 0 66.772 0 122s44.772 100 100 100zm0-67c18.225 0 33-14.775 33-33s-14.775-33-33-33-33 14.775-33 33 14.775 33 33 33z" fill="#004047"/><path fill-rule="evenodd" clip-rule="evenodd" d="M100 78H0v4h100v-4zm0 8H0v4h100v-4zM0 94h100v4H0v-4zm100 8H0v4h100v-4zM0 110h100v4H0v-4zm100 8H0v4h100v-4z" fill="#F67E7E"/><path fill-rule="evenodd" clip-rule="evenodd" d="M0-22h4v4H0v-4zm11 0H7v4h4v-4zm0 8H7v4h4v-4zM7-6h4v4H7v-4zm4 8H7v4h4V2zm-4 8h4v4H7v-4zm4 8H7v4h4v-4zm3-40h4v4h-4v-4zm0 8h4v4h-4v-4zm4 8h-4v4h4v-4zm-4 8h4v4h-4V2zm4 8h-4v4h4v-4zm-4 8h4v4h-4v-4zM0-14h4v4H0v-4zm21-8h4v4h-4v-4zm0 8h4v4h-4v-4zm4 8h-4v4h4v-4zm-4 8h4v4h-4V2zm4 8h-4v4h4v-4zm-4 8h4v4h-4v-4zM0-6h4v4H0v-4zm28-16h4v4h-4v-4zm0 8h4v4h-4v-4zm4 8h-4v4h4v-4zm-4 8h4v4h-4V2zm4 8h-4v4h4v-4zm-4 8h4v4h-4v-4zM0 2h4v4H0V2zm35-24h4v4h-4v-4zm0 8h4v4h-4v-4zm4 8h-4v4h4v-4zm-4 8h4v4h-4V2zm4 8h-4v4h4v-4zm-4 8h4v4h-4v-4zM0 10h4v4H0v-4zm42-32h4v4h-4v-4zm0 8h4v4h-4v-4zm4 8h-4v4h4v-4zm-4 8h4v4h-4V2zm4 8h-4v4h4v-4zm-4 8h4v4h-4v-4zM0 18h4v4H0v-4zm49-40h4v4h-4v-4zm0 8h4v4h-4v-4zm4 8h-4v4h4v-4zm-4 8h4v4h-4V2zm4 8h-4v4h4v-4zm-4 8h4v4h-4v-4z" fill="#79C8C7"/></svg>