<svg width="200" height="200" fill="none" xmlns="http://www.w3.org/2000/svg"><path fill="#F5F5F5" d="M0 0h200v200H0z"/><path fill="#fff" d="M-872-39H568v2525H-872z"/><g clip-path="url(#a)"><path fill="#014E56" d="M-872-39H568v700H-872z"/><mask id="b" style="mask-type:luminance" maskUnits="userSpaceOnUse" x="-872" y="-39" width="1440" height="700"><path fill="#fff" d="M-872-39H568v700H-872z"/></mask><g mask="url(#b)"><path fill="#79C8C7" d="M100 200h100V100H100z"/><path fill-rule="evenodd" clip-rule="evenodd" d="M100 200C44.772 200 0 155.228 0 100S44.772 0 100 0s100 44.772 100 100-44.772 100-100 100zm0-67c-18.225 0-33-14.775-33-33s14.775-33 33-33 33 14.775 33 33-14.775 33-33 33z" fill="#012F34"/><path fill-rule="evenodd" clip-rule="evenodd" d="M200 156h-4v4h4v-4zm-11 0h4v4h-4v-4zm0 8h4v4h-4v-4zm4 8h-4v4h4v-4zm-4 8h4v4h-4v-4zm4 8h-4v4h4v-4zm-4 8h4v4h-4v-4zm-3-40h-4v4h4v-4zm0 8h-4v4h4v-4zm-4 8h4v4h-4v-4zm4 8h-4v4h4v-4zm-4 8h4v4h-4v-4zm4 8h-4v4h4v-4zm14-32h-4v4h4v-4zm-21-8h-4v4h4v-4zm0 8h-4v4h4v-4zm-4 8h4v4h-4v-4zm4 8h-4v4h4v-4zm-4 8h4v4h-4v-4zm4 8h-4v4h4v-4zm21-24h-4v4h4v-4zm-28-16h-4v4h4v-4zm0 8h-4v4h4v-4zm-4 8h4v4h-4v-4zm4 8h-4v4h4v-4zm-4 8h4v4h-4v-4zm4 8h-4v4h4v-4zm28-16h-4v4h4v-4zm-35-24h-4v4h4v-4zm0 8h-4v4h4v-4zm-4 8h4v4h-4v-4zm4 8h-4v4h4v-4zm-4 8h4v4h-4v-4zm4 8h-4v4h4v-4zm35-8h-4v4h4v-4zm-42-32h-4v4h4v-4zm0 8h-4v4h4v-4zm-4 8h4v4h-4v-4zm4 8h-4v4h4v-4zm-4 8h4v4h-4v-4zm4 8h-4v4h4v-4zm42 0h-4v4h4v-4zm-49-40h-4v4h4v-4zm0 8h-4v4h4v-4zm-4 8h4v4h-4v-4zm4 8h-4v4h4v-4zm-4 8h4v4h-4v-4zm4 8h-4v4h4v-4z" fill="#F67E7E"/></g></g><defs><clipPath id="a"><path fill="#fff" transform="translate(-872 -39)" d="M0 0h1440v700H0z"/></clipPath></defs></svg>